<?xml version="1.0" encoding="utf-8"?>
<!-- Generator: Adobe Illustrator 23.0.1, SVG Export Plug-In . SVG Version: 6.00 Build 0)  -->
<svg version="1.1" id="Layer_1" xmlns="http://www.w3.org/2000/svg" xmlns:xlink="http://www.w3.org/1999/xlink" x="0px" y="0px"
	 viewBox="0 0 826 826" style="enable-background:new 0 0 826 826;" xml:space="preserve">
<style type="text/css">
	.st0{fill-rule:evenodd;clip-rule:evenodd;fill:#FFFFFF;}
</style>
<g>
	<path class="st0" d="M413,0c228,0,413,185,413,413S641,826,413,826S0,641,0,413S185,0,413,0z M667,256c-14-15-28-29-43-43
		c-9-10-25-10-35,0c-88,87-175,174-262,262c-30-30-59-60-89-89c-10-10-26-10-36,0c-14,14-28,28-43,43c-9,10-9,26,0,35
		c50,50,100,100,150,150c10,10,26,10,36,0c107-108,215-215,322-323C677,281,677,265,667,256z"/>
</g>
</svg>
