<?xml version="1.0" encoding="utf-8"?>
<!-- Generator: Adobe Illustrator 23.0.1, SVG Export Plug-In . SVG Version: 6.00 Build 0)  -->
<svg version="1.1" id="Layer_1" xmlns="http://www.w3.org/2000/svg" xmlns:xlink="http://www.w3.org/1999/xlink" x="0px" y="0px"
	 viewBox="0 0 104.3 104.9" style="enable-background:new 0 0 104.3 104.9;" xml:space="preserve">
<path d="M87.3,101.9H17.1c-8.5,0-15.4-6.9-15.4-15.4V39.5C1.6,30.9,8.6,24,17.1,24h70.2c8.5,0,15.4,6.9,15.4,15.4v47.1
	C102.7,95,95.8,101.9,87.3,101.9z M17.1,26.4C9.8,26.4,4,32.2,4,39.5v47.1c0,7.2,5.9,13.1,13.1,13.1h70.2c7.2,0,13.1-5.9,13.1-13.1
	V39.5c0-7.2-5.9-13.1-13.1-13.1C87.3,26.4,17.1,26.4,17.1,26.4z"/>
<path d="M2.8,40.6c-0.6,0-1.2-0.5-1.2-1.2v-6.8c0-8.5,6.9-15.4,15.4-15.4h70.2c8.5,0,15.4,6.9,15.4,15.4v5c0,0.6-0.5,1.2-1.2,1.2
	s-1.2-0.5-1.2-1.2v-5c0-7.2-5.9-13.1-13.1-13.1H17.1C9.8,19.6,4,25.5,4,32.7v6.8C4,40.1,3.4,40.6,2.8,40.6z"/>
<path d="M79,95.1H25.3c-9.3,0-16.8-7.4-16.8-16.4V49c0-9,7.6-16.4,16.8-16.4H79c9.3,0,16.8,7.4,16.8,16.4v29.7
	C95.9,87.7,88.3,95.1,79,95.1z M25.3,34.9c-8,0-14.5,6.3-14.5,14.1v29.7c0,7.8,6.5,14.1,14.5,14.1H79c8,0,14.5-6.3,14.5-14.1V49
	c0-7.8-6.5-14.1-14.5-14.1L25.3,34.9L25.3,34.9z"/>
<path d="M55.4,26.4H49c-1.6,0-2.9-1.3-2.9-2.9s1.3-2.9,2.9-2.9h6.4c1.6,0,2.9,1.3,2.9,2.9S57,26.4,55.4,26.4z M49,22.8
	c-0.3,0-0.6,0.3-0.6,0.6c0,0.3,0.3,0.6,0.6,0.6h6.4c0.3,0,0.6-0.3,0.6-0.6s-0.3-0.6-0.6-0.6H49z"/>
<path d="M52.2,30.3c-1.4,0-3.7-0.2-3.7-1.9v-2.5c0-1.6,2.3-1.9,3.7-1.9c1.4,0,3.7,0.2,3.7,1.9v2.5C55.8,30,53.5,30.3,52.2,30.3z
	 M50.8,27.8c0.6,0.1,2.1,0.1,2.7,0v-1.3c-0.6-0.1-2.1-0.1-2.7,0V27.8z"/>
<path d="M33.8,12.2c-0.4,0-0.8-0.3-1-0.7l-2.4-4.3c-0.1-0.2-0.1-0.4-0.1-0.6c0-4.7,21.8-4.7,22-4.7c0.6,0,1.2,0.5,1.2,1.2
	s-0.5,1.2-1.2,1.2c-9.8,0-17.7,1.4-19.5,2.5l1.3,2.2c4.2-2.6,16.6-2.7,18.2-2.7c0.6,0,1.2,0.5,1.2,1.2s-0.5,1.2-1.2,1.2
	c-10.9,0-16.8,1.7-17.3,2.6c0,0.5-0.3,0.9-0.8,1C33.9,12.2,33.8,12.2,33.8,12.2z"/>
<path d="M70.8,12.1c-0.1,0-0.2,0-0.3,0c-0.5-0.1-0.9-0.6-0.9-1.1c-0.5-0.7-6.4-2.4-17.3-2.4c-0.6,0-1.2-0.5-1.2-1.2s0.5-1.2,1.2-1.2
	c1.7,0,14,0.1,18.2,2.7l1.2-2.2c-1.8-1.1-9.7-2.5-19.5-2.5c-0.6,0-1.2-0.5-1.2-1.2s0.5-1.2,1.2-1.2c0.2,0,22,0.1,22,4.7
	c0,0.2-0.1,0.4-0.2,0.6l-2.4,4.3C71.6,11.9,71.2,12.1,70.8,12.1z"/>
<path d="M31.3,22.8H19.9c-0.6,0-1.2-0.5-1.2-1.2v-3.2c0-0.6,0.5-1.2,1.2-1.2h9.6c0.5,0,0.9-0.1,1.3-0.2c0,0,0.1,0,0.1,0
	c0.4-0.2,0.7-0.4,0.9-0.7c1.2-1.4,0.9-4.2,0.7-5.2c-0.1-0.6,0.3-1.2,0.9-1.4c0.6-0.1,1.2,0.3,1.4,0.9c0,0.2,0.9,4.5-1.2,7.1
	c-0.3,0.4-0.7,0.8-1.2,1v2.8C32.5,22.3,32,22.8,31.3,22.8z M21.1,20.5h9.1v-0.9c-0.2,0-0.4,0-0.6,0h-8.5V20.5z"/>
<path d="M84.4,22.8H73c-0.6,0-1.2-0.5-1.2-1.2v-2.8c-0.4-0.3-0.8-0.6-1.2-1c-2.1-2.6-1.2-6.9-1.2-7.1c0.1-0.6,0.8-1,1.4-0.9
	c0.6,0.1,1,0.7,0.9,1.4c-0.2,1-0.4,3.8,0.7,5.2c0.2,0.3,0.6,0.5,0.9,0.7c0,0,0.1,0,0.1,0c0.4,0.1,0.8,0.2,1.3,0.2h9.6
	c0.6,0,1.2,0.5,1.2,1.2v3.2C85.5,22.3,85,22.8,84.4,22.8z M74.1,20.5h9.1v-0.9h-8.5c-0.2,0-0.4,0-0.6,0V20.5z"/>
</svg>
