<?xml version="1.0" encoding="utf-8"?>
<!-- Generator: Adobe Illustrator 23.0.1, SVG Export Plug-In . SVG Version: 6.00 Build 0)  -->
<svg version="1.1" id="Layer_1" xmlns="http://www.w3.org/2000/svg" xmlns:xlink="http://www.w3.org/1999/xlink" x="0px" y="0px"
	 viewBox="0 0 76.6 71.1" style="enable-background:new 0 0 76.6 71.1;" xml:space="preserve">
<style type="text/css">
	.st0{fill:#FFFFFF;}
</style>
<g>
	<ellipse class="st0" cx="45.8" cy="68.8" rx="7.5" ry="2.4"/>
	<ellipse class="st0" cx="58.4" cy="19.4" rx="1.4" ry="1.3"/>
	<path class="st0" d="M75.5,18.1l-9.6-4.5C64,6.3,56,0,45.2,0c-12,0-19.5,10.6-19.5,22.5c0,1.2,0.1,2.4,0.3,3.6
		c0.4,13.1-11.1,12.7-17.1,10.2c-0.4-0.9-0.8-1.9-1.3-2.9C5.9,30,4,27.4,3.4,27.7c-0.6,0.3,0.3,3,1.8,6.3C1.7,30.8,0,26.6,0,31.8
		c0,13.3,14.5,32.9,32.9,32.9c21.4,0,36.1-13.7,36-35.9l6.5-7.1c0.7-0.4,1.1-1.1,1.1-1.9C76.6,19.2,76.2,18.5,75.5,18.1z M56.9,21.8
		c-1.7,0-3.2-1.4-3.2-3.2c0-1.8,1.4-3.2,3.2-3.2c1.7,0,3.2,1.4,3.2,3.2C60,20.4,58.6,21.8,56.9,21.8z"/>
</g>
</svg>
