<?xml version="1.0" encoding="utf-8"?>
<!-- Generator: Adobe Illustrator 23.0.1, SVG Export Plug-In . SVG Version: 6.00 Build 0)  -->
<svg version="1.1" id="Layer_1" xmlns="http://www.w3.org/2000/svg" xmlns:xlink="http://www.w3.org/1999/xlink" x="0px" y="0px"
	 viewBox="0 0 95 95" style="enable-background:new 0 0 95 95;" xml:space="preserve">
<g>
	<path d="M54.4,47.5l7.6-7.6c1.9-1.9,1.9-5,0-6.9c-1.9-1.9-5-1.9-6.9,0l-7.6,7.6L39.9,33c-1.9-1.9-5-1.9-6.9,0c-1.9,1.9-1.9,5,0,6.9
		l7.6,7.6L33,55.1c-1.9,1.9-1.9,5,0,6.9c1,1,2.2,1.4,3.4,1.4s2.5-0.5,3.4-1.4l7.6-7.6l7.6,7.6c1,1,2.2,1.4,3.4,1.4S61.1,63,62,62
		c1.9-1.9,1.9-5,0-6.9L54.4,47.5z"/>
	<path d="M47.5,0C21.3,0,0,21.3,0,47.5C0,73.7,21.3,95,47.5,95C73.7,95,95,73.7,95,47.5C95,21.3,73.7,0,47.5,0z M47.5,83.3
		c-19.8,0-35.8-16-35.8-35.8s16-35.8,35.8-35.8s35.8,16,35.8,35.8S67.3,83.3,47.5,83.3z"/>
</g>
</svg>
