<?xml version="1.0" encoding="utf-8"?>
<!-- Generator: Adobe Illustrator 23.0.1, SVG Export Plug-In . SVG Version: 6.00 Build 0)  -->
<svg version="1.1" id="Layer_1" xmlns="http://www.w3.org/2000/svg" xmlns:xlink="http://www.w3.org/1999/xlink" x="0px" y="0px"
	 viewBox="0 0 30 30" style="enable-background:new 0 0 30 30;" xml:space="preserve">
<style type="text/css">
	.st0{fill:#FFFFFF;}
</style>
<title>Socialmedia Iconset-02</title>
<path class="st0" d="M23.7,30H6.3C2.8,30,0,27.2,0,23.7V6.3C0,2.8,2.8,0,6.3,0h17.3C27.2,0,30,2.8,30,6.3v17.3
	C30,27.2,27.2,30,23.7,30z M6.3,2C3.9,2,2,3.9,2,6.3v17.3C2,26.1,3.9,28,6.3,28h17.3c2.4,0,4.3-1.9,4.3-4.3V6.3
	C28,3.9,26.1,2,23.7,2H6.3z"/>
<path class="st0" d="M15,22.5c-4.2,0-7.5-3.4-7.5-7.5s3.4-7.5,7.5-7.5s7.5,3.4,7.5,7.5C22.5,19.2,19.2,22.5,15,22.5z M15,9.5
	c-3.1,0-5.5,2.5-5.5,5.5c0,3.1,2.5,5.5,5.5,5.5c3.1,0,5.5-2.5,5.5-5.5C20.5,11.9,18.1,9.5,15,9.5L15,9.5z"/>
<path class="st0" d="M23.5,8.9c-1.4,0-2.6-1.1-2.6-2.5c0-1.4,1.1-2.6,2.5-2.6S26,4.9,26,6.3c0,0,0,0,0,0C26,7.8,24.9,8.9,23.5,8.9z
	 M23.5,4.8c-0.9,0-1.6,0.7-1.6,1.5s0.7,1.6,1.5,1.6c0.9,0,1.6-0.7,1.6-1.5C25,5.5,24.3,4.8,23.5,4.8z"/>
</svg>
